<svg xmlns="http://www.w3.org/2000/svg" width="96" height="96"><path style="marker:none" color="#000" overflow="visible" fill="none" d="M96 0v96H0V0z"/><path style="line-height:125%;-inkscape-font-specification:Ubuntu;text-align:center" d="M48 4c-4 0-8.008.746-12 2.15v6.711c-6.673.95-13.344 2.669-20 5.096V24h-4v4h72v-4h-4v-6.043c-6.667-2.375-13.333-4.108-20-5.074V6.15C56 4.776 52 4 48 4zm0 4c2.667 0 5.333.517 8 1.434v2.962a81.872 81.872 0 0 0-16-.011V9.434C42.661 8.497 45.333 8 48 8zM15.998 26v54c0 2.633.245 4.726.91 6.488.666 1.762 1.86 3.171 3.37 4.01C23.297 92.176 27 92 32 92H63.998c5 0 8.703.176 11.723-1.502 1.51-.839 2.701-2.248 3.367-4.01.665-1.762.912-3.855.912-6.488V34h-4.002v46c0 2.367-.255 4.024-.652 5.074-.397 1.05-.829 1.517-1.569 1.928-1.48.822-4.779.998-9.779.998H32c-5 0-8.3-.176-9.78-.998-.74-.411-1.17-.877-1.568-1.928C20.255 84.024 20 82.367 20 80V26zm16 8v36H36V34zm14 0v36H50V34zm14 0v36H64V34zm13.56 41.115l.112.145c-.021-.027-.032-.06-.053-.086-.017-.022-.042-.036-.058-.059zm-51.162.014c-.016.022-.041.038-.058.06-.021.027-.032.06-.053.086z" font-weight="400" font-size="15" font-family="Ubuntu" letter-spacing="0" word-spacing="0" text-anchor="middle" fill="gray"/></svg>