<svg xmlns="http://www.w3.org/2000/svg" width="96" height="96"><path style="marker:none" color="#000" overflow="visible" fill="none" d="M96 0v96H0V0z"/><path style="line-height:125%;-inkscape-font-specification:Ubuntu;text-align:center" d="M72.396 73.883c.017.021.04.035.057.056.02.026.03.057.05.083zM23.56 73.896l-.107.14c.02-.026.03-.058.05-.083.017-.021.041-.035.058-.057z" font-weight="400" font-size="15" font-family="Ubuntu" letter-spacing="0" word-spacing="0" text-anchor="middle" fill="gray"/><path style="marker:none" d="M73.475 8.006L18.334 63.924l-.086.14c-.242.387-1.583 2.628-3.455 6.432-1.872 3.805-4.175 9.012-6.027 14.852l-.875 2.756 2.757-.872c5.845-1.852 11.056-4.158 14.86-6.029 3.804-1.871 6.041-3.212 6.426-3.453l.14-.084 55.92-55.137L74.543 9.072l-1.068-1.066zM68 60v4h20v-4H68zm-47.38 5.959l9.42 9.422c-.298.177-2.427 1.443-5.858 3.13-1.648.811-3.625 1.692-5.782 2.58l-3.494-3.493c.888-2.156 1.768-4.13 2.578-5.778 1.688-3.43 2.956-5.56 3.135-5.861zM56 72h32v4H56zM44 84h44v4H44z" color="#000" overflow="visible" fill="gray"/></svg>