<svg xmlns="http://www.w3.org/2000/svg" height="96" width="96"><path color="#000" fill="none" d="M96 0v96H0V0z"/><path style="text-decoration-color:#000;font-variant-numeric:normal;solid-color:#000;text-decoration-line:none;font-variant-position:normal;mix-blend-mode:normal;block-progression:tb;font-feature-settings:normal;shape-padding:0;font-variant-alternates:normal;text-indent:0;font-variant-caps:normal;white-space:normal;text-decoration-style:solid;font-variant-ligatures:none;isolation:auto;text-transform:none" d="M23.988 7.999l-.012.002c-5.033.058-8.713-.12-11.725 1.541-1.505.83-2.697 2.236-3.355 3.99-.659 1.755-.897 3.837-.897 6.467v56.002c0 2.63.238 4.712.897 6.467.658 1.754 1.85 3.16 3.355 3.99 3.011 1.661 6.692 1.485 11.725 1.543H72.023c5.033-.058 8.713.118 11.725-1.543 1.505-.83 2.697-2.236 3.355-3.99C87.762 80.713 88 78.63 88 76V19.999c0-2.63-.238-4.712-.897-6.467-.66-1.759-1.85-3.163-3.356-3.994-3.01-1.66-6.692-1.483-11.725-1.54l-.011-.003H23.988zm.012 4h48c5.038.059 8.352.237 9.816 1.045.734.405 1.153.855 1.543 1.894.39 1.04.64 2.691.64 5.06v56.003c0 2.37-.25 4.02-.64 5.06s-.81 1.49-1.543 1.895c-1.464.808-4.778.986-9.816 1.045H23.999c-5.038-.059-8.352-.237-9.816-1.045-.734-.405-1.15-.855-1.541-1.895-.39-1.04-.643-2.69-.643-5.06V19.999c0-2.37.253-4.021.643-5.06.39-1.04.807-1.49 1.54-1.895 1.465-.808 4.78-.986 9.817-1.045z" color="#000" fill="gray"/><path d="M71.822 32.395L44.642 56.2 28.98 42.766l-2.885 3.262 18.541 19.508L73.902 34.74l-2.08-2.346z" fill="gray"/></svg>